<?xml version="1.0" encoding="utf-8" standalone="no"?>
<!DOCTYPE svg PUBLIC "-//W3C//DTD SVG 1.1//EN"
  "http://www.w3.org/Graphics/SVG/1.1/DTD/svg11.dtd">
<svg xmlns:xlink="http://www.w3.org/1999/xlink" width="398.16pt" height="298.08pt" viewBox="0 0 398.16 298.08" xmlns="http://www.w3.org/2000/svg" version="1.1">
 <metadata>
  <rdf:RDF xmlns:dc="http://purl.org/dc/elements/1.1/" xmlns:cc="http://creativecommons.org/ns#" xmlns:rdf="http://www.w3.org/1999/02/22-rdf-syntax-ns#">
   <cc:Work>
    <dc:type rdf:resource="http://purl.org/dc/dcmitype/StillImage"/>
    <dc:date>2021-10-19T11:22:18.200048</dc:date>
    <dc:format>image/svg+xml</dc:format>
    <dc:creator>
     <cc:Agent>
      <dc:title>Matplotlib v3.5.0b1, https://matplotlib.org/</dc:title>
     </cc:Agent>
    </dc:creator>
   </cc:Work>
  </rdf:RDF>
 </metadata>
 <defs>
  <style type="text/css">*{stroke-linejoin: round; stroke-linecap: butt}</style>
 </defs>
 <g id="figure_1">
  <g id="patch_1">
   <path d="M 0 298.08 
L 398.16 298.08 
L 398.16 0 
L 0 0 
z
" style="fill: #ffffff"/>
  </g>
  <g id="axes_1">
   <g id="patch_2">
    <path d="M 63.92375 249.266562 
L 385.2 249.266562 
L 385.2 14.953831 
L 63.92375 14.953831 
z
" style="fill: #eaeaf2"/>
   </g>
   <g id="matplotlib.axis_1">
    <g id="xtick_1">
     <g id="line2d_1">
      <path d="M 109.150684 249.266562 
L 109.150684 14.953831 
" clip-path="url(#p07804dc0ab)" style="fill: none; stroke: #ffffff; stroke-linecap: round"/>
     </g>
     <g id="text_1">
      <!-- 5 -->
      <g style="fill: #262626" transform="translate(105.651309 267.124844)scale(0.11 -0.11)">
       <defs>
        <path id="DejaVuSans-35" d="M 691 4666 
L 3169 4666 
L 3169 4134 
L 1269 4134 
L 1269 2991 
Q 1406 3038 1543 3061 
Q 1681 3084 1819 3084 
Q 2600 3084 3056 2656 
Q 3513 2228 3513 1497 
Q 3513 744 3044 326 
Q 2575 -91 1722 -91 
Q 1428 -91 1123 -41 
Q 819 9 494 109 
L 494 744 
Q 775 591 1075 516 
Q 1375 441 1709 441 
Q 2250 441 2565 725 
Q 2881 1009 2881 1497 
Q 2881 1984 2565 2268 
Q 2250 2553 1709 2553 
Q 1456 2553 1204 2497 
Q 953 2441 691 2322 
L 691 4666 
z
" transform="scale(0.015625)"/>
       </defs>
       <use xlink:href="#DejaVuSans-35"/>
      </g>
     </g>
    </g>
    <g id="xtick_2">
     <g id="line2d_2">
      <path d="M 157.662956 249.266562 
L 157.662956 14.953831 
" clip-path="url(#p07804dc0ab)" style="fill: none; stroke: #ffffff; stroke-linecap: round"/>
     </g>
     <g id="text_2">
      <!-- 10 -->
      <g style="fill: #262626" transform="translate(150.664206 267.124844)scale(0.11 -0.11)">
       <defs>
        <path id="DejaVuSans-31" d="M 794 531 
L 1825 531 
L 1825 4091 
L 703 3866 
L 703 4441 
L 1819 4666 
L 2450 4666 
L 2450 531 
L 3481 531 
L 3481 0 
L 794 0 
L 794 531 
z
" transform="scale(0.015625)"/>
        <path id="DejaVuSans-30" d="M 2034 4250 
Q 1547 4250 1301 3770 
Q 1056 3291 1056 2328 
Q 1056 1369 1301 889 
Q 1547 409 2034 409 
Q 2525 409 2770 889 
Q 3016 1369 3016 2328 
Q 3016 3291 2770 3770 
Q 2525 4250 2034 4250 
z
M 2034 4750 
Q 2819 4750 3233 4129 
Q 3647 3509 3647 2328 
Q 3647 1150 3233 529 
Q 2819 -91 2034 -91 
Q 1250 -91 836 529 
Q 422 1150 422 2328 
Q 422 3509 836 4129 
Q 1250 4750 2034 4750 
z
" transform="scale(0.015625)"/>
       </defs>
       <use xlink:href="#DejaVuSans-31"/>
       <use xlink:href="#DejaVuSans-30" x="63.623047"/>
      </g>
     </g>
    </g>
    <g id="xtick_3">
     <g id="line2d_3">
      <path d="M 206.175229 249.266562 
L 206.175229 14.953831 
" clip-path="url(#p07804dc0ab)" style="fill: none; stroke: #ffffff; stroke-linecap: round"/>
     </g>
     <g id="text_3">
      <!-- 15 -->
      <g style="fill: #262626" transform="translate(199.176479 267.124844)scale(0.11 -0.11)">
       <use xlink:href="#DejaVuSans-31"/>
       <use xlink:href="#DejaVuSans-35" x="63.623047"/>
      </g>
     </g>
    </g>
    <g id="xtick_4">
     <g id="line2d_4">
      <path d="M 254.687501 249.266562 
L 254.687501 14.953831 
" clip-path="url(#p07804dc0ab)" style="fill: none; stroke: #ffffff; stroke-linecap: round"/>
     </g>
     <g id="text_4">
      <!-- 20 -->
      <g style="fill: #262626" transform="translate(247.688751 267.124844)scale(0.11 -0.11)">
       <defs>
        <path id="DejaVuSans-32" d="M 1228 531 
L 3431 531 
L 3431 0 
L 469 0 
L 469 531 
Q 828 903 1448 1529 
Q 2069 2156 2228 2338 
Q 2531 2678 2651 2914 
Q 2772 3150 2772 3378 
Q 2772 3750 2511 3984 
Q 2250 4219 1831 4219 
Q 1534 4219 1204 4116 
Q 875 4013 500 3803 
L 500 4441 
Q 881 4594 1212 4672 
Q 1544 4750 1819 4750 
Q 2544 4750 2975 4387 
Q 3406 4025 3406 3419 
Q 3406 3131 3298 2873 
Q 3191 2616 2906 2266 
Q 2828 2175 2409 1742 
Q 1991 1309 1228 531 
z
" transform="scale(0.015625)"/>
       </defs>
       <use xlink:href="#DejaVuSans-32"/>
       <use xlink:href="#DejaVuSans-30" x="63.623047"/>
      </g>
     </g>
    </g>
    <g id="xtick_5">
     <g id="line2d_5">
      <path d="M 303.199774 249.266562 
L 303.199774 14.953831 
" clip-path="url(#p07804dc0ab)" style="fill: none; stroke: #ffffff; stroke-linecap: round"/>
     </g>
     <g id="text_5">
      <!-- 25 -->
      <g style="fill: #262626" transform="translate(296.201024 267.124844)scale(0.11 -0.11)">
       <use xlink:href="#DejaVuSans-32"/>
       <use xlink:href="#DejaVuSans-35" x="63.623047"/>
      </g>
     </g>
    </g>
    <g id="xtick_6">
     <g id="line2d_6">
      <path d="M 351.712046 249.266562 
L 351.712046 14.953831 
" clip-path="url(#p07804dc0ab)" style="fill: none; stroke: #ffffff; stroke-linecap: round"/>
     </g>
     <g id="text_6">
      <!-- 30 -->
      <g style="fill: #262626" transform="translate(344.713296 267.124844)scale(0.11 -0.11)">
       <defs>
        <path id="DejaVuSans-33" d="M 2597 2516 
Q 3050 2419 3304 2112 
Q 3559 1806 3559 1356 
Q 3559 666 3084 287 
Q 2609 -91 1734 -91 
Q 1441 -91 1130 -33 
Q 819 25 488 141 
L 488 750 
Q 750 597 1062 519 
Q 1375 441 1716 441 
Q 2309 441 2620 675 
Q 2931 909 2931 1356 
Q 2931 1769 2642 2001 
Q 2353 2234 1838 2234 
L 1294 2234 
L 1294 2753 
L 1863 2753 
Q 2328 2753 2575 2939 
Q 2822 3125 2822 3475 
Q 2822 3834 2567 4026 
Q 2313 4219 1838 4219 
Q 1578 4219 1281 4162 
Q 984 4106 628 3988 
L 628 4550 
Q 988 4650 1302 4700 
Q 1616 4750 1894 4750 
Q 2613 4750 3031 4423 
Q 3450 4097 3450 3541 
Q 3450 3153 3228 2886 
Q 3006 2619 2597 2516 
z
" transform="scale(0.015625)"/>
       </defs>
       <use xlink:href="#DejaVuSans-33"/>
       <use xlink:href="#DejaVuSans-30" x="63.623047"/>
      </g>
     </g>
    </g>
    <g id="text_7">
     <!-- Incidence angle 2θ (°) -->
     <g style="fill: #262626" transform="translate(158.190625 282.624375)scale(0.12 -0.12)">
      <defs>
       <path id="DejaVuSans-49" d="M 628 4666 
L 1259 4666 
L 1259 0 
L 628 0 
L 628 4666 
z
" transform="scale(0.015625)"/>
       <path id="DejaVuSans-6e" d="M 3513 2113 
L 3513 0 
L 2938 0 
L 2938 2094 
Q 2938 2591 2744 2837 
Q 2550 3084 2163 3084 
Q 1697 3084 1428 2787 
Q 1159 2491 1159 1978 
L 1159 0 
L 581 0 
L 581 3500 
L 1159 3500 
L 1159 2956 
Q 1366 3272 1645 3428 
Q 1925 3584 2291 3584 
Q 2894 3584 3203 3211 
Q 3513 2838 3513 2113 
z
" transform="scale(0.015625)"/>
       <path id="DejaVuSans-63" d="M 3122 3366 
L 3122 2828 
Q 2878 2963 2633 3030 
Q 2388 3097 2138 3097 
Q 1578 3097 1268 2742 
Q 959 2388 959 1747 
Q 959 1106 1268 751 
Q 1578 397 2138 397 
Q 2388 397 2633 464 
Q 2878 531 3122 666 
L 3122 134 
Q 2881 22 2623 -34 
Q 2366 -91 2075 -91 
Q 1284 -91 818 406 
Q 353 903 353 1747 
Q 353 2603 823 3093 
Q 1294 3584 2113 3584 
Q 2378 3584 2631 3529 
Q 2884 3475 3122 3366 
z
" transform="scale(0.015625)"/>
       <path id="DejaVuSans-69" d="M 603 3500 
L 1178 3500 
L 1178 0 
L 603 0 
L 603 3500 
z
M 603 4863 
L 1178 4863 
L 1178 4134 
L 603 4134 
L 603 4863 
z
" transform="scale(0.015625)"/>
       <path id="DejaVuSans-64" d="M 2906 2969 
L 2906 4863 
L 3481 4863 
L 3481 0 
L 2906 0 
L 2906 525 
Q 2725 213 2448 61 
Q 2172 -91 1784 -91 
Q 1150 -91 751 415 
Q 353 922 353 1747 
Q 353 2572 751 3078 
Q 1150 3584 1784 3584 
Q 2172 3584 2448 3432 
Q 2725 3281 2906 2969 
z
M 947 1747 
Q 947 1113 1208 752 
Q 1469 391 1925 391 
Q 2381 391 2643 752 
Q 2906 1113 2906 1747 
Q 2906 2381 2643 2742 
Q 2381 3103 1925 3103 
Q 1469 3103 1208 2742 
Q 947 2381 947 1747 
z
" transform="scale(0.015625)"/>
       <path id="DejaVuSans-65" d="M 3597 1894 
L 3597 1613 
L 953 1613 
Q 991 1019 1311 708 
Q 1631 397 2203 397 
Q 2534 397 2845 478 
Q 3156 559 3463 722 
L 3463 178 
Q 3153 47 2828 -22 
Q 2503 -91 2169 -91 
Q 1331 -91 842 396 
Q 353 884 353 1716 
Q 353 2575 817 3079 
Q 1281 3584 2069 3584 
Q 2775 3584 3186 3129 
Q 3597 2675 3597 1894 
z
M 3022 2063 
Q 3016 2534 2758 2815 
Q 2500 3097 2075 3097 
Q 1594 3097 1305 2825 
Q 1016 2553 972 2059 
L 3022 2063 
z
" transform="scale(0.015625)"/>
       <path id="DejaVuSans-20" transform="scale(0.015625)"/>
       <path id="DejaVuSans-61" d="M 2194 1759 
Q 1497 1759 1228 1600 
Q 959 1441 959 1056 
Q 959 750 1161 570 
Q 1363 391 1709 391 
Q 2188 391 2477 730 
Q 2766 1069 2766 1631 
L 2766 1759 
L 2194 1759 
z
M 3341 1997 
L 3341 0 
L 2766 0 
L 2766 531 
Q 2569 213 2275 61 
Q 1981 -91 1556 -91 
Q 1019 -91 701 211 
Q 384 513 384 1019 
Q 384 1609 779 1909 
Q 1175 2209 1959 2209 
L 2766 2209 
L 2766 2266 
Q 2766 2663 2505 2880 
Q 2244 3097 1772 3097 
Q 1472 3097 1187 3025 
Q 903 2953 641 2809 
L 641 3341 
Q 956 3463 1253 3523 
Q 1550 3584 1831 3584 
Q 2591 3584 2966 3190 
Q 3341 2797 3341 1997 
z
" transform="scale(0.015625)"/>
       <path id="DejaVuSans-67" d="M 2906 1791 
Q 2906 2416 2648 2759 
Q 2391 3103 1925 3103 
Q 1463 3103 1205 2759 
Q 947 2416 947 1791 
Q 947 1169 1205 825 
Q 1463 481 1925 481 
Q 2391 481 2648 825 
Q 2906 1169 2906 1791 
z
M 3481 434 
Q 3481 -459 3084 -895 
Q 2688 -1331 1869 -1331 
Q 1566 -1331 1297 -1286 
Q 1028 -1241 775 -1147 
L 775 -588 
Q 1028 -725 1275 -790 
Q 1522 -856 1778 -856 
Q 2344 -856 2625 -561 
Q 2906 -266 2906 331 
L 2906 616 
Q 2728 306 2450 153 
Q 2172 0 1784 0 
Q 1141 0 747 490 
Q 353 981 353 1791 
Q 353 2603 747 3093 
Q 1141 3584 1784 3584 
Q 2172 3584 2450 3431 
Q 2728 3278 2906 2969 
L 2906 3500 
L 3481 3500 
L 3481 434 
z
" transform="scale(0.015625)"/>
       <path id="DejaVuSans-6c" d="M 603 4863 
L 1178 4863 
L 1178 0 
L 603 0 
L 603 4863 
z
" transform="scale(0.015625)"/>
       <path id="DejaVuSans-3b8" d="M 2953 2219 
L 963 2219 
Q 1009 1284 1225 888 
Q 1494 400 1959 400 
Q 2428 400 2688 891 
Q 2916 1322 2953 2219 
z
M 2944 2750 
Q 2856 3638 2688 3950 
Q 2419 4444 1959 4444 
Q 1481 4444 1228 3956 
Q 1028 3563 969 2750 
L 2944 2750 
z
M 1959 4913 
Q 2709 4913 3138 4250 
Q 3566 3591 3566 2422 
Q 3566 1256 3138 594 
Q 2709 -72 1959 -72 
Q 1206 -72 781 594 
Q 353 1256 353 2422 
Q 353 3591 781 4250 
Q 1206 4913 1959 4913 
z
" transform="scale(0.015625)"/>
       <path id="DejaVuSans-28" d="M 1984 4856 
Q 1566 4138 1362 3434 
Q 1159 2731 1159 2009 
Q 1159 1288 1364 580 
Q 1569 -128 1984 -844 
L 1484 -844 
Q 1016 -109 783 600 
Q 550 1309 550 2009 
Q 550 2706 781 3412 
Q 1013 4119 1484 4856 
L 1984 4856 
z
" transform="scale(0.015625)"/>
       <path id="DejaVuSans-b0" d="M 1600 4347 
Q 1350 4347 1178 4173 
Q 1006 4000 1006 3750 
Q 1006 3503 1178 3333 
Q 1350 3163 1600 3163 
Q 1850 3163 2022 3333 
Q 2194 3503 2194 3750 
Q 2194 3997 2020 4172 
Q 1847 4347 1600 4347 
z
M 1600 4750 
Q 1800 4750 1984 4673 
Q 2169 4597 2303 4453 
Q 2447 4313 2519 4134 
Q 2591 3956 2591 3750 
Q 2591 3338 2302 3052 
Q 2013 2766 1594 2766 
Q 1172 2766 890 3047 
Q 609 3328 609 3750 
Q 609 4169 896 4459 
Q 1184 4750 1600 4750 
z
" transform="scale(0.015625)"/>
       <path id="DejaVuSans-29" d="M 513 4856 
L 1013 4856 
Q 1481 4119 1714 3412 
Q 1947 2706 1947 2009 
Q 1947 1309 1714 600 
Q 1481 -109 1013 -844 
L 513 -844 
Q 928 -128 1133 580 
Q 1338 1288 1338 2009 
Q 1338 2731 1133 3434 
Q 928 4138 513 4856 
z
" transform="scale(0.015625)"/>
      </defs>
      <use xlink:href="#DejaVuSans-49"/>
      <use xlink:href="#DejaVuSans-6e" x="29.492188"/>
      <use xlink:href="#DejaVuSans-63" x="92.871094"/>
      <use xlink:href="#DejaVuSans-69" x="147.851562"/>
      <use xlink:href="#DejaVuSans-64" x="175.634766"/>
      <use xlink:href="#DejaVuSans-65" x="239.111328"/>
      <use xlink:href="#DejaVuSans-6e" x="300.634766"/>
      <use xlink:href="#DejaVuSans-63" x="364.013672"/>
      <use xlink:href="#DejaVuSans-65" x="418.994141"/>
      <use xlink:href="#DejaVuSans-20" x="480.517578"/>
      <use xlink:href="#DejaVuSans-61" x="512.304688"/>
      <use xlink:href="#DejaVuSans-6e" x="573.583984"/>
      <use xlink:href="#DejaVuSans-67" x="636.962891"/>
      <use xlink:href="#DejaVuSans-6c" x="700.439453"/>
      <use xlink:href="#DejaVuSans-65" x="728.222656"/>
      <use xlink:href="#DejaVuSans-20" x="789.746094"/>
      <use xlink:href="#DejaVuSans-32" x="821.533203"/>
      <use xlink:href="#DejaVuSans-3b8" x="885.15625"/>
      <use xlink:href="#DejaVuSans-20" x="946.337891"/>
      <use xlink:href="#DejaVuSans-28" x="978.125"/>
      <use xlink:href="#DejaVuSans-b0" x="1017.138672"/>
      <use xlink:href="#DejaVuSans-29" x="1067.138672"/>
     </g>
    </g>
   </g>
   <g id="matplotlib.axis_2">
    <g id="ytick_1">
     <g id="line2d_7">
      <path d="M 63.92375 237.689045 
L 385.2 237.689045 
" clip-path="url(#p07804dc0ab)" style="fill: none; stroke: #ffffff; stroke-linecap: round"/>
     </g>
     <g id="text_8">
      <!-- $\mathdefault{10^{-6}}$ -->
      <g style="fill: #262626" transform="translate(28.57375 241.868185)scale(0.11 -0.11)">
       <defs>
        <path id="DejaVuSans-2212" d="M 678 2272 
L 4684 2272 
L 4684 1741 
L 678 1741 
L 678 2272 
z
" transform="scale(0.015625)"/>
        <path id="DejaVuSans-36" d="M 2113 2584 
Q 1688 2584 1439 2293 
Q 1191 2003 1191 1497 
Q 1191 994 1439 701 
Q 1688 409 2113 409 
Q 2538 409 2786 701 
Q 3034 994 3034 1497 
Q 3034 2003 2786 2293 
Q 2538 2584 2113 2584 
z
M 3366 4563 
L 3366 3988 
Q 3128 4100 2886 4159 
Q 2644 4219 2406 4219 
Q 1781 4219 1451 3797 
Q 1122 3375 1075 2522 
Q 1259 2794 1537 2939 
Q 1816 3084 2150 3084 
Q 2853 3084 3261 2657 
Q 3669 2231 3669 1497 
Q 3669 778 3244 343 
Q 2819 -91 2113 -91 
Q 1303 -91 875 529 
Q 447 1150 447 2328 
Q 447 3434 972 4092 
Q 1497 4750 2381 4750 
Q 2619 4750 2861 4703 
Q 3103 4656 3366 4563 
z
" transform="scale(0.015625)"/>
       </defs>
       <use xlink:href="#DejaVuSans-31" transform="translate(0 0.765625)"/>
       <use xlink:href="#DejaVuSans-30" transform="translate(63.623047 0.765625)"/>
       <use xlink:href="#DejaVuSans-2212" transform="translate(128.203125 39.046875)scale(0.7)"/>
       <use xlink:href="#DejaVuSans-36" transform="translate(186.855469 39.046875)scale(0.7)"/>
      </g>
     </g>
    </g>
    <g id="ytick_2">
     <g id="line2d_8">
      <path d="M 63.92375 200.931867 
L 385.2 200.931867 
" clip-path="url(#p07804dc0ab)" style="fill: none; stroke: #ffffff; stroke-linecap: round"/>
     </g>
     <g id="text_9">
      <!-- $\mathdefault{10^{-5}}$ -->
      <g style="fill: #262626" transform="translate(28.57375 205.111007)scale(0.11 -0.11)">
       <use xlink:href="#DejaVuSans-31" transform="translate(0 0.684375)"/>
       <use xlink:href="#DejaVuSans-30" transform="translate(63.623047 0.684375)"/>
       <use xlink:href="#DejaVuSans-2212" transform="translate(128.203125 38.965625)scale(0.7)"/>
       <use xlink:href="#DejaVuSans-35" transform="translate(186.855469 38.965625)scale(0.7)"/>
      </g>
     </g>
    </g>
    <g id="ytick_3">
     <g id="line2d_9">
      <path d="M 63.92375 164.174689 
L 385.2 164.174689 
" clip-path="url(#p07804dc0ab)" style="fill: none; stroke: #ffffff; stroke-linecap: round"/>
     </g>
     <g id="text_10">
      <!-- $\mathdefault{10^{-4}}$ -->
      <g style="fill: #262626" transform="translate(28.57375 168.353829)scale(0.11 -0.11)">
       <defs>
        <path id="DejaVuSans-34" d="M 2419 4116 
L 825 1625 
L 2419 1625 
L 2419 4116 
z
M 2253 4666 
L 3047 4666 
L 3047 1625 
L 3713 1625 
L 3713 1100 
L 3047 1100 
L 3047 0 
L 2419 0 
L 2419 1100 
L 313 1100 
L 313 1709 
L 2253 4666 
z
" transform="scale(0.015625)"/>
       </defs>
       <use xlink:href="#DejaVuSans-31" transform="translate(0 0.684375)"/>
       <use xlink:href="#DejaVuSans-30" transform="translate(63.623047 0.684375)"/>
       <use xlink:href="#DejaVuSans-2212" transform="translate(128.203125 38.965625)scale(0.7)"/>
       <use xlink:href="#DejaVuSans-34" transform="translate(186.855469 38.965625)scale(0.7)"/>
      </g>
     </g>
    </g>
    <g id="ytick_4">
     <g id="line2d_10">
      <path d="M 63.92375 127.417511 
L 385.2 127.417511 
" clip-path="url(#p07804dc0ab)" style="fill: none; stroke: #ffffff; stroke-linecap: round"/>
     </g>
     <g id="text_11">
      <!-- $\mathdefault{10^{-3}}$ -->
      <g style="fill: #262626" transform="translate(28.57375 131.596651)scale(0.11 -0.11)">
       <use xlink:href="#DejaVuSans-31" transform="translate(0 0.765625)"/>
       <use xlink:href="#DejaVuSans-30" transform="translate(63.623047 0.765625)"/>
       <use xlink:href="#DejaVuSans-2212" transform="translate(128.203125 39.046875)scale(0.7)"/>
       <use xlink:href="#DejaVuSans-33" transform="translate(186.855469 39.046875)scale(0.7)"/>
      </g>
     </g>
    </g>
    <g id="ytick_5">
     <g id="line2d_11">
      <path d="M 63.92375 90.660333 
L 385.2 90.660333 
" clip-path="url(#p07804dc0ab)" style="fill: none; stroke: #ffffff; stroke-linecap: round"/>
     </g>
     <g id="text_12">
      <!-- $\mathdefault{10^{-2}}$ -->
      <g style="fill: #262626" transform="translate(28.57375 94.839473)scale(0.11 -0.11)">
       <use xlink:href="#DejaVuSans-31" transform="translate(0 0.765625)"/>
       <use xlink:href="#DejaVuSans-30" transform="translate(63.623047 0.765625)"/>
       <use xlink:href="#DejaVuSans-2212" transform="translate(128.203125 39.046875)scale(0.7)"/>
       <use xlink:href="#DejaVuSans-32" transform="translate(186.855469 39.046875)scale(0.7)"/>
      </g>
     </g>
    </g>
    <g id="ytick_6">
     <g id="line2d_12">
      <path d="M 63.92375 53.903155 
L 385.2 53.903155 
" clip-path="url(#p07804dc0ab)" style="fill: none; stroke: #ffffff; stroke-linecap: round"/>
     </g>
     <g id="text_13">
      <!-- $\mathdefault{10^{-1}}$ -->
      <g style="fill: #262626" transform="translate(28.57375 58.082295)scale(0.11 -0.11)">
       <use xlink:href="#DejaVuSans-31" transform="translate(0 0.684375)"/>
       <use xlink:href="#DejaVuSans-30" transform="translate(63.623047 0.684375)"/>
       <use xlink:href="#DejaVuSans-2212" transform="translate(128.203125 38.965625)scale(0.7)"/>
       <use xlink:href="#DejaVuSans-31" transform="translate(186.855469 38.965625)scale(0.7)"/>
      </g>
     </g>
    </g>
    <g id="ytick_7">
     <g id="line2d_13">
      <path d="M 63.92375 17.145977 
L 385.2 17.145977 
" clip-path="url(#p07804dc0ab)" style="fill: none; stroke: #ffffff; stroke-linecap: round"/>
     </g>
     <g id="text_14">
      <!-- $\mathdefault{10^{0}}$ -->
      <g style="fill: #262626" transform="translate(35.06375 21.325117)scale(0.11 -0.11)">
       <use xlink:href="#DejaVuSans-31" transform="translate(0 0.765625)"/>
       <use xlink:href="#DejaVuSans-30" transform="translate(63.623047 0.765625)"/>
       <use xlink:href="#DejaVuSans-30" transform="translate(128.203125 39.046875)scale(0.7)"/>
      </g>
     </g>
    </g>
    <g id="ytick_8"/>
    <g id="ytick_9"/>
    <g id="ytick_10"/>
    <g id="ytick_11"/>
    <g id="ytick_12"/>
    <g id="ytick_13"/>
    <g id="ytick_14"/>
    <g id="ytick_15"/>
    <g id="ytick_16"/>
    <g id="ytick_17"/>
    <g id="ytick_18"/>
    <g id="ytick_19"/>
    <g id="ytick_20"/>
    <g id="ytick_21"/>
    <g id="ytick_22"/>
    <g id="ytick_23"/>
    <g id="ytick_24"/>
    <g id="ytick_25"/>
    <g id="ytick_26"/>
    <g id="ytick_27"/>
    <g id="ytick_28"/>
    <g id="ytick_29"/>
    <g id="ytick_30"/>
    <g id="ytick_31"/>
    <g id="ytick_32"/>
    <g id="ytick_33"/>
    <g id="ytick_34"/>
    <g id="ytick_35"/>
    <g id="ytick_36"/>
    <g id="ytick_37"/>
    <g id="ytick_38"/>
    <g id="ytick_39"/>
    <g id="ytick_40"/>
    <g id="ytick_41"/>
    <g id="ytick_42"/>
    <g id="ytick_43"/>
    <g id="ytick_44"/>
    <g id="ytick_45"/>
    <g id="ytick_46"/>
    <g id="ytick_47"/>
    <g id="ytick_48"/>
    <g id="ytick_49"/>
    <g id="ytick_50"/>
    <g id="ytick_51"/>
    <g id="ytick_52"/>
    <g id="ytick_53"/>
    <g id="ytick_54"/>
    <g id="ytick_55"/>
    <g id="ytick_56"/>
    <g id="ytick_57"/>
    <g id="ytick_58"/>
    <g id="ytick_59"/>
    <g id="ytick_60"/>
    <g id="text_15">
     <!-- Intensity (arb. u) -->
     <g style="fill: #262626" transform="translate(22.078125 182.382697)rotate(-90)scale(0.12 -0.12)">
      <defs>
       <path id="DejaVuSans-74" d="M 1172 4494 
L 1172 3500 
L 2356 3500 
L 2356 3053 
L 1172 3053 
L 1172 1153 
Q 1172 725 1289 603 
Q 1406 481 1766 481 
L 2356 481 
L 2356 0 
L 1766 0 
Q 1100 0 847 248 
Q 594 497 594 1153 
L 594 3053 
L 172 3053 
L 172 3500 
L 594 3500 
L 594 4494 
L 1172 4494 
z
" transform="scale(0.015625)"/>
       <path id="DejaVuSans-73" d="M 2834 3397 
L 2834 2853 
Q 2591 2978 2328 3040 
Q 2066 3103 1784 3103 
Q 1356 3103 1142 2972 
Q 928 2841 928 2578 
Q 928 2378 1081 2264 
Q 1234 2150 1697 2047 
L 1894 2003 
Q 2506 1872 2764 1633 
Q 3022 1394 3022 966 
Q 3022 478 2636 193 
Q 2250 -91 1575 -91 
Q 1294 -91 989 -36 
Q 684 19 347 128 
L 347 722 
Q 666 556 975 473 
Q 1284 391 1588 391 
Q 1994 391 2212 530 
Q 2431 669 2431 922 
Q 2431 1156 2273 1281 
Q 2116 1406 1581 1522 
L 1381 1569 
Q 847 1681 609 1914 
Q 372 2147 372 2553 
Q 372 3047 722 3315 
Q 1072 3584 1716 3584 
Q 2034 3584 2315 3537 
Q 2597 3491 2834 3397 
z
" transform="scale(0.015625)"/>
       <path id="DejaVuSans-79" d="M 2059 -325 
Q 1816 -950 1584 -1140 
Q 1353 -1331 966 -1331 
L 506 -1331 
L 506 -850 
L 844 -850 
Q 1081 -850 1212 -737 
Q 1344 -625 1503 -206 
L 1606 56 
L 191 3500 
L 800 3500 
L 1894 763 
L 2988 3500 
L 3597 3500 
L 2059 -325 
z
" transform="scale(0.015625)"/>
       <path id="DejaVuSans-72" d="M 2631 2963 
Q 2534 3019 2420 3045 
Q 2306 3072 2169 3072 
Q 1681 3072 1420 2755 
Q 1159 2438 1159 1844 
L 1159 0 
L 581 0 
L 581 3500 
L 1159 3500 
L 1159 2956 
Q 1341 3275 1631 3429 
Q 1922 3584 2338 3584 
Q 2397 3584 2469 3576 
Q 2541 3569 2628 3553 
L 2631 2963 
z
" transform="scale(0.015625)"/>
       <path id="DejaVuSans-62" d="M 3116 1747 
Q 3116 2381 2855 2742 
Q 2594 3103 2138 3103 
Q 1681 3103 1420 2742 
Q 1159 2381 1159 1747 
Q 1159 1113 1420 752 
Q 1681 391 2138 391 
Q 2594 391 2855 752 
Q 3116 1113 3116 1747 
z
M 1159 2969 
Q 1341 3281 1617 3432 
Q 1894 3584 2278 3584 
Q 2916 3584 3314 3078 
Q 3713 2572 3713 1747 
Q 3713 922 3314 415 
Q 2916 -91 2278 -91 
Q 1894 -91 1617 61 
Q 1341 213 1159 525 
L 1159 0 
L 581 0 
L 581 4863 
L 1159 4863 
L 1159 2969 
z
" transform="scale(0.015625)"/>
       <path id="DejaVuSans-2e" d="M 684 794 
L 1344 794 
L 1344 0 
L 684 0 
L 684 794 
z
" transform="scale(0.015625)"/>
       <path id="DejaVuSans-75" d="M 544 1381 
L 544 3500 
L 1119 3500 
L 1119 1403 
Q 1119 906 1312 657 
Q 1506 409 1894 409 
Q 2359 409 2629 706 
Q 2900 1003 2900 1516 
L 2900 3500 
L 3475 3500 
L 3475 0 
L 2900 0 
L 2900 538 
Q 2691 219 2414 64 
Q 2138 -91 1772 -91 
Q 1169 -91 856 284 
Q 544 659 544 1381 
z
M 1991 3584 
L 1991 3584 
z
" transform="scale(0.015625)"/>
      </defs>
      <use xlink:href="#DejaVuSans-49"/>
      <use xlink:href="#DejaVuSans-6e" x="29.492188"/>
      <use xlink:href="#DejaVuSans-74" x="92.871094"/>
      <use xlink:href="#DejaVuSans-65" x="132.080078"/>
      <use xlink:href="#DejaVuSans-6e" x="193.603516"/>
      <use xlink:href="#DejaVuSans-73" x="256.982422"/>
      <use xlink:href="#DejaVuSans-69" x="309.082031"/>
      <use xlink:href="#DejaVuSans-74" x="336.865234"/>
      <use xlink:href="#DejaVuSans-79" x="376.074219"/>
      <use xlink:href="#DejaVuSans-20" x="435.253906"/>
      <use xlink:href="#DejaVuSans-28" x="467.041016"/>
      <use xlink:href="#DejaVuSans-61" x="506.054688"/>
      <use xlink:href="#DejaVuSans-72" x="567.333984"/>
      <use xlink:href="#DejaVuSans-62" x="608.447266"/>
      <use xlink:href="#DejaVuSans-2e" x="671.923828"/>
      <use xlink:href="#DejaVuSans-20" x="703.710938"/>
      <use xlink:href="#DejaVuSans-75" x="735.498047"/>
      <use xlink:href="#DejaVuSans-29" x="798.876953"/>
     </g>
    </g>
   </g>
   <g id="line2d_14">
    <path d="M 62.802059 22.478965 
L 62.957298 18.916826 
L 63.374503 17.914463 
L 63.568553 17.764414 
L 63.762602 17.830928 
L 64.1507 17.484779 
L 64.344749 17.747828 
L 64.538798 17.648676 
L 64.732847 17.419688 
L 64.936599 17.665159 
L 65.130648 17.387242 
L 65.324697 17.403457 
L 65.518746 17.698175 
L 65.712795 17.452201 
L 65.906844 17.419688 
L 66.100893 17.145977 
L 66.294942 17.177936 
L 66.488991 17.403457 
L 66.692743 17.371044 
L 66.886792 17.517424 
L 67.27489 17.387242 
L 68.254838 17.764414 
L 68.448887 19.572202 
L 68.836985 28.40371 
L 69.225084 37.696581 
L 70.205031 51.126262 
L 71.602185 64.777747 
L 71.990283 68.332 
L 72.378381 71.943485 
L 72.766479 73.941519 
L 73.348627 79.515701 
L 73.542676 78.590025 
L 73.930774 81.4556 
L 74.318872 83.664277 
L 74.512921 85.062643 
L 74.70697 87.355675 
L 74.901019 87.485989 
L 75.483167 91.064492 
L 75.677216 90.501491 
L 76.065314 94.708705 
L 76.259363 94.626631 
L 76.453412 94.770539 
L 76.647461 96.468525 
L 76.84151 96.19525 
L 77.035559 97.934973 
L 77.229608 98.291428 
L 77.617707 101.471953 
L 77.811756 100.825322 
L 78.005805 102.510591 
L 78.199854 102.952632 
L 78.393903 102.178699 
L 78.782001 104.854418 
L 79.170099 105.609989 
L 79.364148 107.602595 
L 79.558198 106.148366 
L 79.752247 107.510586 
L 79.946296 112.225778 
L 80.140345 110.094157 
L 80.334394 110.040318 
L 80.528443 112.66316 
L 80.916541 112.790359 
L 81.11059 114.121416 
L 81.304639 111.268881 
L 81.498688 117.004157 
L 81.692738 114.758623 
L 81.886787 115.7264 
L 82.080836 115.649837 
L 82.274885 118.946859 
L 82.468934 114.831019 
L 82.857032 120.216792 
L 83.051081 117.004157 
L 83.24513 121.267398 
L 83.439179 122.865074 
L 83.633228 119.231082 
L 83.827278 118.946859 
L 84.021327 124.112853 
L 84.215376 123.855372 
L 84.409425 121.267398 
L 84.603474 124.112853 
L 84.797523 124.374554 
L 84.991572 124.374554 
L 85.185621 127.417511 
L 85.37967 128.219533 
L 86.058842 124.507032 
L 86.252891 128.713903 
L 86.44694 127.51358 
L 86.640989 125.466497 
L 86.835038 126.337446 
L 87.029088 134.869384 
L 87.223137 132.332411 
L 87.417186 131.882707 
L 87.611235 131.756513 
L 87.805284 131.281805 
L 87.999333 133.225703 
L 88.193382 132.795152 
L 88.387431 131.631309 
L 88.58148 132.202626 
L 88.775529 135.126036 
L 88.969578 132.419524 
L 89.163628 132.661566 
L 89.357677 137.402459 
L 89.745775 134.171962 
L 89.939824 134.516864 
L 90.133873 135.921721 
L 90.327922 134.742589 
L 90.521971 136.644927 
L 90.910069 141.572802 
L 91.298168 136.030873 
L 91.492217 140.450787 
L 91.686266 140.199954 
L 91.880315 141.342002 
L 92.074364 134.541788 
L 92.268413 138.387029 
L 92.462462 138.418797 
L 92.656511 138.041691 
L 92.85056 140.77919 
L 93.044609 140.595911 
L 93.238658 142.737948 
L 93.432707 139.572489 
L 93.626757 144.875523 
L 94.014855 142.044662 
L 94.208904 145.11558 
L 94.402953 146.062207 
L 94.597002 139.234268 
L 94.9851 150.740382 
L 95.179149 142.572092 
L 95.373198 151.515801 
L 95.567247 144.176283 
L 95.761297 145.858199 
L 95.955346 145.067279 
L 96.149395 144.827942 
L 96.343444 150.26585 
L 96.537493 150.948152 
L 96.731542 148.437662 
L 97.11964 146.425618 
L 97.313689 146.959563 
L 97.507738 144.686044 
L 97.701787 147.968115 
L 97.895837 153.928493 
L 98.283935 146.959563 
L 98.477984 152.254981 
L 98.672033 147.511986 
L 98.866082 146.851335 
L 99.060131 152.029611 
L 99.448229 146.32094 
L 99.642278 153.43218 
L 100.224426 148.378208 
L 100.418475 149.106704 
L 100.612524 152.950834 
L 100.806573 147.123292 
L 101.194671 152.330817 
L 101.38872 153.189693 
L 101.582769 152.029611 
L 101.776818 147.455875 
L 101.970867 147.233385 
L 102.164917 153.513835 
L 102.358966 151.660924 
L 102.553015 151.733983 
L 102.747064 152.104381 
L 103.232187 149.231419 
L 103.426236 150.199196 
L 103.620285 149.675758 
L 103.814334 154.182558 
L 104.008383 150.066719 
L 104.202432 151.229453 
L 104.396481 156.572353 
L 104.59053 151.018014 
L 104.784579 149.16894 
L 104.978628 149.294144 
L 105.172677 147.624802 
L 105.366727 153.844695 
L 105.560776 150.332782 
L 105.754825 150.809338 
L 105.948874 153.270113 
L 106.142923 147.910381 
L 106.336972 147.968115 
L 106.531021 152.407015 
L 106.919119 150.809338 
L 107.113168 153.350941 
L 107.307217 152.715497 
L 107.501267 147.123292 
L 107.889365 154.703151 
L 108.083414 150.332782 
L 108.277463 152.637815 
L 108.471512 145.606801 
L 108.665561 147.233385 
L 108.85961 154.703151 
L 109.247708 148.982956 
L 109.441757 150.199196 
L 109.635807 149.106704 
L 109.829856 152.104381 
L 110.023905 150.332782 
L 110.217954 151.588197 
L 110.412003 148.860159 
L 110.800101 154.527727 
L 110.99415 149.04471 
L 111.188199 149.04471 
L 111.576297 153.350941 
L 111.770347 147.068528 
L 111.964396 147.123292 
L 112.158445 147.624802 
L 112.352494 145.757164 
L 112.546543 153.030057 
L 112.740592 147.568294 
L 112.934641 148.378208 
L 113.12869 144.405976 
L 113.322739 147.511986 
L 113.710837 149.294144 
L 114.098936 144.875523 
L 114.292985 145.359301 
L 114.487034 143.3324 
L 114.681083 145.656765 
L 114.875132 145.706886 
L 115.069181 143.032407 
L 115.26323 145.019123 
L 115.457279 143.3324 
L 115.651328 142.696322 
L 115.845377 143.289197 
L 116.039426 141.885821 
L 116.233476 143.032407 
L 116.718598 139.813581 
L 116.815623 137.077568 
L 117.106696 141.11449 
L 117.203721 140.450787 
L 117.39777 138.135136 
L 117.688844 136.874209 
L 117.785868 134.692151 
L 118.076942 134.641872 
L 118.173966 135.074375 
L 118.562065 130.219806 
L 118.950163 131.486468 
L 119.144212 130.64398 
L 119.726359 124.775331 
L 120.017433 125.048217 
L 120.59958 121.707796 
L 120.793629 119.423415 
L 120.987678 119.135777 
L 121.375776 113.914544 
L 121.957924 106.148366 
L 122.540071 93.367777 
L 123.122218 74.511703 
L 123.704366 43.160646 
L 123.898415 38.466767 
L 124.092464 37.353268 
L 124.286513 39.339985 
L 124.86866 55.531948 
L 125.644856 75.530354 
L 126.421053 87.749854 
L 126.809151 91.922134 
L 127.197249 96.172687 
L 127.391298 97.488067 
L 127.779396 101.757305 
L 128.555593 108.310101 
L 128.749642 110.587064 
L 128.943691 110.924333 
L 129.331789 113.112864 
L 129.525838 116.432515 
L 129.719887 116.193656 
L 130.107986 119.71633 
L 130.496084 120.421455 
L 130.690133 122.27595 
L 130.884182 122.508997 
L 131.466329 128.15253 
L 131.660378 128.679312 
L 132.242526 131.404288 
L 132.436575 131.527717 
L 133.018722 135.545461 
L 133.40682 136.816579 
L 133.600869 136.759157 
L 133.794918 137.52226 
L 134.183016 142.696322 
L 134.377066 139.067807 
L 134.571115 142.367167 
L 134.765164 143.770983 
L 134.959213 142.990007 
L 135.153262 146.637058 
L 135.347311 145.908957 
L 135.54136 143.949847 
L 135.735409 149.547537 
L 135.929458 145.310258 
L 136.123507 145.757164 
L 136.317556 148.259959 
L 136.802679 150.13282 
L 136.996728 148.378208 
L 137.190777 150.740382 
L 137.384826 151.588197 
L 137.578875 151.371985 
L 137.772925 152.715497 
L 137.966974 155.517328 
L 138.161023 153.678408 
L 138.355072 153.270113 
L 138.646145 156.771899 
L 139.034244 156.872615 
L 139.325317 158.35373 
L 139.422342 157.178633 
L 139.81044 157.596001 
L 140.101514 161.532509 
L 140.295563 161.943607 
L 140.489612 158.35373 
L 140.683661 164.015847 
L 140.87771 159.033128 
L 141.071759 162.508744 
L 141.459857 159.742731 
L 141.653906 166.901058 
L 141.847955 160.740771 
L 142.042005 167.459883 
L 142.236054 169.133086 
L 142.430103 165.610196 
L 142.624152 159.266175 
L 142.818201 166.17911 
L 143.01225 165.298873 
L 143.206299 170.49637 
L 143.400348 167.226268 
L 143.594397 168.30556 
L 143.788446 171.883214 
L 143.982495 179.495126 
L 144.176545 170.144479 
L 144.370594 174.861104 
L 144.564643 167.957848 
L 144.758692 171.42417 
L 144.952741 171.449329 
L 145.14679 172.842909 
L 145.340839 169.709606 
L 145.534888 170.354681 
L 145.728937 168.703358 
L 145.922986 175.239702 
L 146.117035 172.302639 
L 146.311085 174.521772 
L 146.505134 178.881858 
L 146.699183 177.947146 
L 146.893232 175.367923 
L 147.087281 183.554674 
L 147.28133 177.17189 
L 147.475379 177.244123 
L 147.669428 176.329667 
L 147.863477 174.767842 
L 148.057526 174.829956 
L 148.251575 180.263568 
L 148.445625 178.252675 
L 148.639674 182.615377 
L 148.833723 178.368774 
L 149.027772 180.351279 
L 149.221821 183.990563 
L 149.41587 180.483757 
L 149.609919 182.819385 
L 149.803968 188.712367 
L 149.998017 179.53686 
L 150.386115 192.745438 
L 150.580165 179.620658 
L 150.774214 181.824457 
L 150.968263 185.678617 
L 151.162312 184.325472 
L 151.356361 185.740134 
L 151.55041 195.446993 
L 151.744459 184.438689 
L 151.938508 193.034813 
L 152.132557 182.067436 
L 152.326606 184.552714 
L 152.520655 191.025331 
L 152.714705 183.341113 
L 153.102803 187.635772 
L 153.296852 181.163154 
L 153.587925 181.163154 
L 153.781975 186.114294 
L 153.976024 182.314171 
L 154.170073 186.240989 
L 154.364122 187.775192 
L 154.558171 191.372376 
L 154.75222 186.304715 
L 154.946269 202.507713 
L 155.140318 185.017137 
L 155.334367 191.460329 
L 155.528416 186.432936 
L 155.722465 191.54877 
L 155.916515 191.54877 
L 156.304613 196.259853 
L 156.498662 183.935421 
L 156.88676 199.265922 
L 157.080809 189.866854 
L 157.468907 186.823897 
L 157.662956 184.157139 
L 157.662956 214.073862 
L 157.662956 203.027041 
L 158.633202 203.154968 
L 158.633202 189.240756 
L 158.633202 191.197911 
L 159.603447 198.154974 
L 159.603447 201.467548 
L 160.573693 203.376686 
L 160.573693 198.289687 
L 160.573693 200.001694 
L 161.543938 195.790306 
L 161.543938 201.717112 
L 162.514184 195.906404 
L 162.514184 198.700785 
L 163.484429 201.97064 
L 163.484429 203.906328 
L 164.454674 208.562962 
L 164.454674 192.089955 
L 165.42492 189.472675 
L 165.42492 204.197462 
L 166.395165 206.39919 
L 166.395165 196.621305 
L 166.395165 196.621305 
L 167.365411 209.059817 
L 167.365411 196.743631 
L 168.335656 215.639036 
L 168.335656 199.556174 
L 169.305902 212.319384 
L 170.276147 202.972527 
L 170.276147 201.401652 
L 170.276147 209.600087 
L 171.246393 212.516062 
L 171.246393 201.533718 
L 172.216638 209.71037 
L 172.216638 216.252304 
L 172.216638 194.143131 
L 173.186884 207.444443 
L 173.186884 207.420456 
L 174.157129 227.442849 
L 174.157129 203.507458 
L 175.127374 203.545019 
L 175.127374 203.545019 
L 176.09762 207.589128 
L 176.09762 210.130853 
L 176.09762 205.524262 
L 177.067865 200.460007 
L 177.067865 205.566888 
L 178.038111 202.021832 
L 178.038111 210.216296 
L 178.038111 207.833222 
L 179.008356 203.82958 
L 179.008356 210.302198 
L 179.978602 216.803553 
L 179.978602 199.265922 
L 180.948847 203.925572 
L 180.948847 216.933514 
L 181.919093 208.006336 
L 181.919093 228.042083 
L 182.889338 205.890264 
L 182.889338 228.129554 
L 182.889338 200.931867 
L 183.859583 202.454941 
L 183.859583 200.963826 
L 184.829829 204.177887 
L 184.829829 185.556292 
L 185.800074 170.83195 
L 185.800074 153.270113 
L 186.77032 141.925383 
L 186.77032 139.953001 
L 186.77032 142.572092 
L 187.740565 148.084213 
L 187.740565 157.075973 
L 188.710811 162.083027 
L 188.710811 172.462809 
L 189.681056 175.335771 
L 189.681056 184.783237 
L 190.651302 183.394236 
L 190.651302 182.922376 
L 190.651302 182.974121 
L 191.621547 188.936681 
L 191.621547 192.745438 
L 192.591793 189.012159 
L 192.591793 195.560612 
L 192.591793 191.284905 
L 193.562038 193.629793 
L 193.562038 206.671301 
L 194.532283 204.735271 
L 194.532283 196.621305 
L 195.502529 198.980853 
L 195.502529 204.755542 
L 196.472774 211.187643 
L 196.472774 206.625626 
L 196.472774 208.74422 
L 197.44302 211.218021 
L 197.44302 217.690639 
L 198.413265 211.187643 
L 198.413265 214.146754 
L 198.413265 206.671301 
L 199.383511 228.755652 
L 199.383511 204.775839 
L 200.353756 203.063487 
L 200.353756 222.31347 
L 202.294247 206.671301 
L 202.294247 222.31347 
L 202.294247 217.690639 
L 203.264492 211.218021 
L 203.264492 217.690639 
L 204.234738 217.736314 
L 204.234738 228.755652 
L 204.234738 214.146754 
L 205.204983 217.690639 
L 205.204983 211.218021 
L 206.175229 214.110267 
L 206.175229 222.31347 
L 206.175229 217.690639 
L 207.145474 217.690639 
L 207.145474 206.625626 
L 207.147927 299.08 
M 208.11572 299.08 
L 208.11572 217.690639 
L 208.11572 228.755652 
L 209.085965 239.820665 
L 209.085965 214.146754 
L 210.056211 222.31347 
L 210.056211 222.252656 
L 210.056211 214.146754 
L 211.026456 206.671301 
L 211.026456 211.248456 
L 211.996702 211.218021 
L 211.996702 214.110267 
L 212.966947 222.31347 
L 212.966947 222.31347 
L 212.966947 228.755652 
L 213.937192 228.755652 
L 213.937192 239.802431 
L 214.907438 217.690639 
L 214.907438 208.770283 
L 215.877683 228.755652 
L 215.877683 228.755652 
L 216.847929 228.755652 
L 216.847929 206.625626 
L 217.818174 214.78016 
L 218.78842 218.824614 
L 218.78842 221.252777 
L 219.758665 214.78016 
L 220.728911 214.78016 
L 221.699156 227.696914 
L 222.669402 221.252777 
L 222.669402 213.086845 
L 223.639647 232.31779 
L 224.609892 213.086845 
L 225.580138 249.878243 
L 226.550383 216.674641 
L 226.550383 218.775721 
L 227.520629 221.195867 
L 228.490874 218.775721 
L 229.46112 213.086845 
L 230.431365 214.78016 
L 232.371856 214.78016 
L 233.342101 232.31779 
L 234.312347 213.086845 
L 236.252838 216.674641 
L 238.193329 216.674641 
L 238.193329 214.78016 
L 239.163574 221.252777 
L 240.13382 216.631901 
L 241.104065 218.775721 
L 242.074311 221.252777 
L 242.074311 227.696914 
L 243.044556 232.31779 
L 244.014801 214.742197 
L 244.985047 218.824614 
L 245.955292 207.735136 
L 246.925538 203.696154 
L 246.925538 205.588244 
L 247.895783 199.122751 
L 248.866029 168.450966 
L 249.836274 154.615198 
L 250.80652 155.517328 
L 250.80652 169.44093 
L 251.776765 178.564167 
L 252.74701 189.787235 
L 253.717256 197.242529 
L 254.687501 201.205578 
L 254.687501 213.052699 
L 255.657747 218.775721 
L 256.627992 216.674641 
L 257.598238 208.901239 
L 258.568483 221.252777 
L 258.568483 214.78016 
L 259.538729 218.775721 
L 260.508974 216.631901 
L 261.47922 211.587134 
L 262.449465 224.186078 
L 262.449465 224.186078 
L 263.41971 232.31779 
L 264.389956 224.186078 
L 265.360201 218.775721 
L 266.330447 227.696914 
L 266.330447 218.775721 
L 267.300692 224.117712 
L 268.270938 221.252777 
L 269.241183 227.696914 
L 270.211429 224.186078 
L 270.211429 218.775721 
L 271.181674 227.696914 
L 272.151919 218.775721 
L 273.122165 213.052699 
L 274.09241 218.824614 
L 274.09241 216.674641 
L 275.062656 224.117712 
L 277.973392 224.186078 
L 278.943638 213.052699 
L 278.943638 216.631901 
L 279.913883 218.726978 
L 280.884129 227.696914 
L 281.854374 224.117712 
L 282.824619 218.726978 
L 282.824619 224.117712 
L 283.794865 221.195867 
L 284.76511 216.631901 
L 285.735356 227.696914 
L 286.705601 232.31779 
L 286.705601 224.117712 
L 287.675847 238.744863 
L 288.646092 224.117712 
L 289.616338 218.726978 
L 290.586583 224.117712 
L 290.586583 221.252777 
L 291.556828 221.195867 
L 292.527074 221.252777 
L 293.497319 232.31779 
L 294.467565 216.631901 
L 294.467565 227.696914 
L 297.378301 227.696914 
L 298.348547 238.744863 
L 298.348547 221.195867 
L 299.318792 227.696914 
L 300.289038 224.117712 
L 301.259283 227.696914 
L 302.229528 216.589275 
L 302.229528 232.31779 
L 303.199774 232.31779 
L 304.170019 216.631901 
L 305.140265 232.31779 
L 306.11051 224.117712 
L 306.11051 224.117712 
L 307.080756 224.117712 
L 308.051001 238.761927 
L 309.021247 224.117712 
L 309.991492 218.775721 
L 310.961737 221.195867 
L 310.961737 218.775721 
L 311.931983 201.23809 
L 312.902228 190.939736 
L 313.872474 187.360534 
L 314.842719 188.057738 
L 314.842719 195.446993 
L 315.812965 206.580081 
L 316.78321 211.52502 
L 317.753456 210.130853 
L 318.723701 216.631901 
L 319.693947 221.195867 
L 320.664192 238.744863 
L 321.634437 218.726978 
L 322.604683 227.696914 
L 322.604683 224.117712 
L 323.574928 227.696914 
L 324.545174 227.696914 
L 325.515419 232.31779 
L 326.485665 221.195867 
L 326.485665 238.727818 
L 327.45591 221.195867 
L 328.426156 227.696914 
L 329.396401 218.726978 
L 330.366647 238.744863 
L 330.366647 224.117712 
L 331.336892 227.696914 
L 332.307137 221.195867 
L 333.277383 232.31779 
L 334.247628 221.195867 
L 334.247628 221.195867 
L 335.217874 224.117712 
L 336.188119 227.696914 
L 337.158365 221.195867 
L 338.12861 227.696914 
L 338.12861 238.744863 
L 339.098856 221.195867 
L 340.069101 218.775721 
L 341.039346 218.775721 
L 342.009592 213.086845 
L 342.979837 221.195867 
L 342.979837 299.08 
M 343.94831 299.08 
L 343.950083 232.31779 
L 344.920328 232.31779 
L 345.890574 221.195867 
L 346.860819 221.252777 
L 346.860819 224.117712 
L 348.80131 224.117712 
L 349.771556 221.252777 
L 350.741801 238.77901 
L 350.741801 238.761927 
L 351.712046 227.696914 
L 352.682292 221.252777 
L 353.652537 232.31779 
L 354.622783 218.775721 
L 354.622783 224.117712 
L 355.593028 221.252777 
L 356.563274 238.761927 
L 357.533519 216.631901 
L 358.503765 218.775721 
L 358.503765 224.117712 
L 359.47401 232.31779 
L 360.444255 238.77901 
L 361.414501 218.775721 
L 362.384746 216.631901 
L 362.384746 227.696914 
L 363.354992 218.775721 
L 364.325237 224.117712 
L 365.295483 232.31779 
L 366.265728 218.775721 
L 366.265728 221.252777 
L 367.235974 238.761927 
L 368.206219 227.696914 
L 370.14671 227.696914 
L 370.14671 227.696914 
L 371.116955 238.77901 
L 372.087201 238.77901 
L 373.057446 216.631901 
L 374.027692 218.775721 
L 374.997937 232.31779 
L 374.997937 238.761927 
L 375.968183 224.117712 
L 376.938428 218.775721 
L 377.908674 211.556047 
L 378.878919 208.901239 
L 378.878919 216.631901 
L 379.849164 238.761927 
L 380.81941 214.742197 
L 381.789655 224.117712 
L 382.759901 238.77901 
L 382.759901 221.252777 
L 383.730146 221.252777 
L 384.700392 216.631901 
L 385.670637 221.195867 
L 386.640883 238.744863 
L 386.640883 238.744863 
L 387.611128 224.117712 
L 388.581374 227.696914 
L 389.551619 232.31779 
L 390.521864 238.744863 
L 390.521864 221.195867 
L 390.521864 221.195867 
" clip-path="url(#p07804dc0ab)" style="fill: none; stroke: #4c72b0; stroke-width: 1.5; stroke-linecap: round"/>
   </g>
   <g id="patch_3">
    <path d="M 63.92375 249.266562 
L 63.92375 14.953831 
" style="fill: none; stroke: #ffffff; stroke-width: 1.25; stroke-linejoin: miter; stroke-linecap: square"/>
   </g>
   <g id="patch_4">
    <path d="M 385.2 249.266562 
L 385.2 14.953831 
" style="fill: none; stroke: #ffffff; stroke-width: 1.25; stroke-linejoin: miter; stroke-linecap: square"/>
   </g>
   <g id="patch_5">
    <path d="M 63.92375 249.266562 
L 385.2 249.266562 
" style="fill: none; stroke: #ffffff; stroke-width: 1.25; stroke-linejoin: miter; stroke-linecap: square"/>
   </g>
   <g id="patch_6">
    <path d="M 63.92375 14.953831 
L 385.2 14.953831 
" style="fill: none; stroke: #ffffff; stroke-width: 1.25; stroke-linejoin: miter; stroke-linecap: square"/>
   </g>
   <g id="legend_1">
    <g id="patch_7">
     <path d="M 288.243594 39.899768 
L 377.5 39.899768 
Q 379.7 39.899768 379.7 37.699768 
L 379.7 22.653831 
Q 379.7 20.453831 377.5 20.453831 
L 288.243594 20.453831 
Q 286.043594 20.453831 286.043594 22.653831 
L 286.043594 37.699768 
Q 286.043594 39.899768 288.243594 39.899768 
z
" style="fill: #eaeaf2; opacity: 0.8; stroke: #cccccc; stroke-linejoin: miter"/>
    </g>
    <g id="line2d_15">
     <path d="M 290.443594 29.362112 
L 301.443594 29.362112 
L 312.443594 29.362112 
" style="fill: none; stroke: #4c72b0; stroke-width: 1.5; stroke-linecap: round"/>
    </g>
    <g id="text_16">
     <!-- IFM20043 -->
     <g style="fill: #262626" transform="translate(321.243594 33.212112)scale(0.11 -0.11)">
      <defs>
       <path id="DejaVuSans-46" d="M 628 4666 
L 3309 4666 
L 3309 4134 
L 1259 4134 
L 1259 2759 
L 3109 2759 
L 3109 2228 
L 1259 2228 
L 1259 0 
L 628 0 
L 628 4666 
z
" transform="scale(0.015625)"/>
       <path id="DejaVuSans-4d" d="M 628 4666 
L 1569 4666 
L 2759 1491 
L 3956 4666 
L 4897 4666 
L 4897 0 
L 4281 0 
L 4281 4097 
L 3078 897 
L 2444 897 
L 1241 4097 
L 1241 0 
L 628 0 
L 628 4666 
z
" transform="scale(0.015625)"/>
      </defs>
      <use xlink:href="#DejaVuSans-49"/>
      <use xlink:href="#DejaVuSans-46" x="29.492188"/>
      <use xlink:href="#DejaVuSans-4d" x="87.011719"/>
      <use xlink:href="#DejaVuSans-32" x="173.291016"/>
      <use xlink:href="#DejaVuSans-30" x="236.914062"/>
      <use xlink:href="#DejaVuSans-30" x="300.537109"/>
      <use xlink:href="#DejaVuSans-34" x="364.160156"/>
      <use xlink:href="#DejaVuSans-33" x="427.783203"/>
     </g>
    </g>
   </g>
  </g>
 </g>
 <defs>
  <clipPath id="p07804dc0ab">
   <rect x="63.92375" y="14.953831" width="321.27625" height="234.312732"/>
  </clipPath>
 </defs>
</svg>
